HIERARCHY
ROOT Hips
{
	OFFSET 0.000000 97.420761 0.000000
	CHANNELS 6 Xposition Yposition Zposition Xrotation Yrotation Zrotation
	JOINT RightUpLeg
	{
		OFFSET -8.571318 0.002251 -0.000250
		CHANNELS 6 Xposition Yposition Zposition Xrotation Yrotation Zrotation
		JOINT RightLeg
		{
			OFFSET 0.000000 -44.326080 -0.000105
			CHANNELS 6 Xposition Yposition Zposition Xrotation Yrotation Zrotation
			JOINT RightFoot
			{
				OFFSET 0.000000 -43.324329 -0.000176
				CHANNELS 6 Xposition Yposition Zposition Xrotation Yrotation Zrotation
				JOINT RightToeBase
				{
					OFFSET 0.000000 -7.938133 18.050686
					CHANNELS 6 Xposition Yposition Zposition Xrotation Yrotation Zrotation
					End Site
					{
						OFFSET 0.000000 0.000000 19.719055
					}
				}
			}
		}
	}
	JOINT LeftUpLeg
	{
		OFFSET 8.571318 -0.000084 0.000009
		CHANNELS 6 Xposition Yposition Zposition Xrotation Yrotation Zrotation
		JOINT LeftLeg
		{
			OFFSET 0.000000 -44.326080 -0.000105
			CHANNELS 6 Xposition Yposition Zposition Xrotation Yrotation Zrotation
			JOINT LeftFoot
			{
				OFFSET 0.000000 -43.324329 -0.000176
				CHANNELS 6 Xposition Yposition Zposition Xrotation Yrotation Zrotation
				JOINT LeftToeBase
				{
					OFFSET 0.000000 -7.938133 18.050686
					CHANNELS 6 Xposition Yposition Zposition Xrotation Yrotation Zrotation
					End Site
					{
						OFFSET 0.000000 0.000000 19.719055
					}
				}
			}
		}
	}
	JOINT Spine
	{
		OFFSET 0.000000 10.422829 -1.158092
		CHANNELS 6 Xposition Yposition Zposition Xrotation Yrotation Zrotation
		JOINT Spine1
		{
			OFFSET 0.000000 11.587624 0.000000
			CHANNELS 3 Xrotation Yrotation Zrotation
			JOINT Spine2
			{
				OFFSET 0.000000 10.579559 -0.000443
				CHANNELS 6 Xposition Yposition Zposition Xrotation Yrotation Zrotation
				JOINT Spine3
				{
					OFFSET 0.000000 10.567749 -0.000444
					CHANNELS 6 Xposition Yposition Zposition Xrotation Yrotation Zrotation
					JOINT LeftShoulder
					{
						OFFSET 3.218383 8.290512 0.000000
						CHANNELS 6 Xposition Yposition Zposition Xrotation Yrotation Zrotation
						JOINT LeftArm
						{
							OFFSET 15.038529 0.000000 0.000000
							CHANNELS 3 Xrotation Yrotation Zrotation
							JOINT LeftForeArm
							{
								OFFSET 32.129166 0.000000 0.000000
								CHANNELS 3 Xrotation Yrotation Zrotation
								JOINT LeftHand
								{
									OFFSET 26.275406 0.000000 0.000000
									CHANNELS 3 Xrotation Yrotation Zrotation
									End Site
									{
										OFFSET 26.275406 0.000000 0.000000
									}
								}
							}
						}
					}
					JOINT RightShoulder
					{
						OFFSET -3.218383 8.290512 0.000000
						CHANNELS 6 Xposition Yposition Zposition Xrotation Yrotation Zrotation
						JOINT RightArm
						{
							OFFSET -15.038529 0.000000 0.000000
							CHANNELS 3 Xrotation Yrotation Zrotation
							JOINT RightForeArm
							{
								OFFSET -32.129166 0.000000 0.000000
								CHANNELS 3 Xrotation Yrotation Zrotation
								JOINT RightHand
								{
									OFFSET -26.275406 0.000000 0.000000
									CHANNELS 3 Xrotation Yrotation Zrotation
									End Site
									{
										OFFSET -26.275406 0.000000 0.000000
									}
								}
							}
						}
					}
					JOINT Neck
					{
						OFFSET 0.000000 14.789474 0.000000
						CHANNELS 6 Xposition Yposition Zposition Xrotation Yrotation Zrotation
						JOINT Head
						{
							OFFSET 0.000000 9.838806 0.000953
							CHANNELS 6 Xposition Yposition Zposition Xrotation Yrotation Zrotation
							End Site
							{
								OFFSET 0.000000 9.838806 0.000000
							}
						}
					}
				}
			}
		}
	}
}
MOTION
Frames: 8
Frame Time: 0.016667
0.000000 97.420761 0.000000 -0.000000 0.000000 -0.000000 -8.571318 0.002251 -0.000250 -0.000000 0.000000 -0.000000 0.000000 -44.326080 -0.000105 -0.000000 0.000000 -0.000000 0.000000 -43.324329 -0.000176 -0.000000 0.000000 -0.000000 0.000000 -7.938133 18.050686 -0.000000 0.000000 -0.000000 8.571318 -0.000084 0.000009 -0.000000 0.000000 -0.000000 0.000000 -44.326080 -0.000105 -0.000000 0.000000 -0.000000 0.000000 -43.324329 -0.000176 -0.000000 0.000000 -0.000000 0.000000 -7.938133 18.050686 -0.000000 0.000000 -0.000000 0.000000 10.422829 -1.158092 -0.000000 0.000000 -0.000000 -0.000000 0.000000 -0.000000 0.000000 10.579559 -0.000443 -0.000000 0.000000 -0.000000 0.000000 10.567749 -0.000444 -0.000000 0.000000 -0.000000 3.218383 8.290512 0.000000 -0.000000 0.000000 -0.000000 -0.000000 0.000000 -0.000000 -0.000000 0.000000 -0.000000 -0.000000 0.000000 -0.000000 -3.218383 8.290512 0.000000 -0.000000 0.000000 -0.000000 -0.000000 0.000000 -0.000000 -0.000000 0.000000 -0.000000 -0.000000 0.000000 -0.000000 0.000000 14.789474 0.000000 -0.000000 0.000000 -0.000000 0.000000 9.838806 0.000953 -0.000000 0.000000 -0.000000 
-179.421326 37.623001 178.857483 -99.923448 -5.639023 30.222057 -8.571309 0.002224 -0.000249 -34.049958 -1.654508 -3.672191 0.000036 -44.326088 -0.000106 116.577669 0.205969 -0.222542 0.000002 -43.324329 -0.000187 11.094779 4.536761 4.338786 -0.000007 -7.938133 18.050667 -0.000000 -0.000003 0.000000 8.571334 -0.000094 0.000015 -42.098475 -6.307658 -6.527517 -0.000015 -44.326084 -0.000099 127.623068 -0.821704 -0.235856 0.000026 -43.324333 -0.000192 -3.314692 -19.486531 -12.233324 0.000027 -7.938138 18.050690 -0.000000 -0.000001 -0.000000 0.000022 10.422828 -1.158092 0.612770 -3.150650 -0.509249 -5.552271 -1.368993 -0.371321 0.000009 10.579578 -0.000443 0.268160 -1.368952 -0.371464 -0.000010 10.567753 -0.000444 6.039540 -1.049605 -0.173430 3.218381 8.290511 0.000004 -6.713082 3.004138 -1.816451 25.903668 -9.108728 -76.266200 12.651649 -5.537993 -12.317485 2.542313 8.075083 -5.723373 -3.218387 8.290515 0.000007 -10.831772 -2.657037 0.652418 16.923614 20.344714 90.268736 23.917845 -0.483725 3.540628 4.354874 -12.106254 18.374802 -0.000015 14.789468 0.000006 3.538780 0.976416 0.713070 -0.000035 9.838800 0.000948 -29.468520 1.359058 1.780340 
-179.434448 37.735344 178.827576 -100.105062 -5.815281 30.172265 -8.571325 0.002245 -0.000251 -33.670644 -1.619898 -3.592643 -0.000000 -44.326065 -0.000115 116.478549 0.153669 -0.186246 0.000009 -43.324310 -0.000189 11.068819 4.565032 4.326095 0.000001 -7.938132 18.050676 0.000000 0.000002 0.000001 8.571301 -0.000086 0.000007 -41.670120 -6.247295 -6.490867 0.000002 -44.326088 -0.000085 127.515575 -0.665077 -0.229129 0.000024 -43.324326 -0.000174 -3.363095 -19.569950 -12.219101 0.000000 -7.938136 18.050686 0.000001 0.000001 0.000000 -0.000031 10.422825 -1.158091 0.693505 -3.113848 -0.496262 -5.516492 -1.353191 -0.364404 -0.000009 10.579538 -0.000435 0.303939 -1.353152 -0.364548 0.000015 10.567758 -0.000441 6.066327 -1.037278 -0.169547 3.218390 8.290536 -0.000001 -6.620954 2.967255 -1.822802 25.871640 -9.091225 -76.247826 12.595737 -5.560203 -12.343794 2.573650 8.143911 -5.764817 -3.218382 8.290531 -0.000001 -10.719685 -2.664587 0.668622 16.854626 20.340382 90.238294 23.727456 -0.552763 3.580699 4.374837 -12.131829 18.378929 0.000011 14.789477 -0.000005 3.563437 0.968643 0.710780 0.000012 9.838843 0.000959 -29.422549 1.346806 1.771954 
-179.451996 37.838001 178.802399 -100.271705 -5.974413 30.131287 -8.571324 0.002235 -0.000256 -33.325296 -1.587724 -3.526141 0.000003 -44.326077 -0.000087 116.387626 0.121137 -0.155953 0.000041 -43.324333 -0.000200 11.046645 4.573857 4.321167 -0.000010 -7.938130 18.050682 -0.000001 -0.000001 -0.000001 8.571299 -0.000100 0.000003 -41.281291 -6.196076 -6.448083 -0.000008 -44.326088 -0.000079 127.415471 -0.568239 -0.217707 0.000009 -43.324326 -0.000194 -3.408053 -19.615781 -12.207198 0.000006 -7.938134 18.050686 -0.000000 -0.000000 -0.000000 0.000004 10.422803 -1.158100 0.767978 -3.079798 -0.487518 -5.483461 -1.338419 -0.359442 -0.000015 10.579566 -0.000447 0.336971 -1.338382 -0.359579 0.000037 10.567752 -0.000438 6.091060 -1.025868 -0.167030 3.218389 8.290511 -0.000003 -6.539994 2.933640 -1.834325 25.845680 -9.085428 -76.247799 12.545376 -5.565251 -12.348180 2.590029 8.179683 -5.783782 -3.218376 8.290505 0.000001 -10.619196 -2.671117 0.676704 16.793951 20.334004 90.213856 23.585574 -0.599514 3.615453 4.382620 -12.146897 18.372876 -0.000014 14.789495 -0.000000 3.584670 0.959695 0.708293 0.000003 9.838820 0.000957 -29.382900 1.332516 1.762628 
-179.472946 37.939121 178.778961 -100.436443 -6.129867 30.094172 -8.571307 0.002270 -0.000255 -32.986494 -1.555799 -3.465047 -0.000000 -44.326111 -0.000106 116.298300 0.100868 -0.128847 0.000015 -43.324318 -0.000179 11.025299 4.570247 4.320930 -0.000009 -7.938123 18.050684 -0.000000 0.000003 0.000001 8.571332 -0.000064 0.000010 -40.900392 -6.148859 -6.398990 0.000012 -44.326084 -0.000109 127.315464 -0.507099 -0.202838 0.000020 -43.324333 -0.000180 -3.452522 -19.638787 -12.196536 0.000009 -7.938134 18.050701 0.000000 -0.000001 -0.000001 -0.000011 10.422834 -1.158091 0.841727 -3.045927 -0.481239 -5.450736 -1.323617 -0.355558 -0.000021 10.579571 -0.000445 0.369696 -1.323580 -0.355696 0.000010 10.567757 -0.000442 6.115569 -1.014519 -0.165327 3.218388 8.290526 0.000005 -6.463572 2.900412 -1.849179 25.823168 -9.087021 -76.260353 12.498294 -5.559248 -12.338442 2.597734 8.195474 -5.788986 -3.218371 8.290534 0.000000 -10.521552 -2.677581 0.679931 16.736014 20.325542 90.191985 23.469623 -0.633966 3.648672 4.383072 -12.155963 18.360564 0.000001 14.789468 0.000006 3.604523 0.949600 0.705667 -0.000010 9.838814 0.000956 -29.345795 1.316242 1.752480 
-179.491425 38.028999 178.757889 -100.582923 -6.267979 30.061572 -8.571321 0.002253 -0.000249 -32.687182 -1.527959 -3.410935 0.000007 -44.326088 -0.000102 116.220108 0.087155 -0.107578 -0.000001 -43.324322 -0.000203 11.004112 4.565592 4.320481 -0.000009 -7.938134 18.050682 -0.000000 0.000001 -0.000000 8.571310 -0.000078 0.000006 -40.563110 -6.108810 -6.353577 0.000025 -44.326088 -0.000115 127.225551 -0.459826 -0.190038 0.000010 -43.324318 -0.000188 -3.490771 -19.656053 -12.188258 0.000019 -7.938128 18.050659 -0.000001 -0.000000 0.000000 0.000001 10.422837 -1.158096 0.906878 -3.015691 -0.476258 -5.421820 -1.310376 -0.352354 -0.000008 10.579560 -0.000439 0.398611 -1.310340 -0.352487 0.000001 10.567765 -0.000439 6.137223 -1.004387 -0.163999 3.218385 8.290511 -0.000002 -6.399918 2.870168 -1.860356 25.806193 -9.088987 -76.274594 12.464481 -5.552653 -12.328748 2.605374 8.207857 -5.792808 -3.218384 8.290497 -0.000003 -10.434733 -2.684473 0.682678 16.685227 20.316077 90.171836 23.371553 -0.664173 3.679055 4.384083 -12.164359 18.351678 0.000002 14.789461 -0.000002 3.621575 0.940684 0.703748 -0.000007 9.838808 0.000955 -29.313915 1.301649 1.744228 
-179.507004 38.113754 178.736694 -100.720394 -6.398163 30.030211 -8.571297 0.002245 -0.000249 -32.408042 -1.502972 -3.358925 -0.000004 -44.326077 -0.000102 116.148706 0.078117 -0.091184 0.000027 -43.324326 -0.000180 10.979198 4.563670 4.317751 -0.000001 -7.938132 18.050667 -0.000000 -0.000000 0.000000 8.571333 -0.000087 0.000007 -40.246774 -6.073686 -6.309977 0.000005 -44.326080 -0.000102 127.139627 -0.415032 -0.179638 0.000037 -43.324333 -0.000178 -3.524539 -19.674932 -12.182561 0.000023 -7.938130 18.050694 -0.000001 0.000000 0.000000 0.000014 10.422826 -1.158087 0.966779 -2.986953 -0.471755 -5.395236 -1.297789 -0.349389 -0.000024 10.579549 -0.000441 0.425195 -1.297753 -0.349524 -0.000003 10.567739 -0.000439 6.157131 -0.994762 -0.162797 3.218366 8.290510 0.000002 -6.345784 2.839906 -1.865694 25.794358 -9.088757 -76.290672 12.448009 -5.547850 -12.321320 2.616775 8.223411 -5.800051 -3.218401 8.290515 -0.000001 -10.351567 -2.693530 0.687005 16.637424 20.306607 90.150007 23.279223 -0.696095 3.711068 4.389949 -12.174050 18.349223 -0.000001 14.789469 0.000001 3.637801 0.932498 0.703325 0.000009 9.838790 0.000955 -29.283575 1.287554 1.739031 
-179.522034 38.197426 178.715363 -100.856083 -6.526656 29.999864 -8.571324 0.002228 -0.000245 -32.134708 -1.479114 -3.307636 -0.000006 -44.326111 -0.000113 116.079885 0.074394 -0.078539 -0.000000 -43.324322 -0.000200 10.951875 4.560066 4.314701 -0.000008 -7.938131 18.050653 -0.000000 -0.000003 -0.000001 8.571309 -0.000106 0.000014 -39.936003 -6.041512 -6.264685 -0.000009 -44.326096 -0.000094 127.053444 -0.379242 -0.169976 0.000011 -43.324322 -0.000176 -3.556263 -19.689851 -12.178382 -0.000011 -7.938135 18.050674 0.000001 0.000000 -0.000000 0.000012 10.422806 -1.158089 1.025457 -2.958435 -0.468030 -5.369185 -1.285262 -0.346767 -0.000005 10.579541 -0.000439 0.451244 -1.285227 -0.346899 0.000001 10.567750 -0.000447 6.176638 -0.985207 -0.161840 3.218390 8.290519 0.000002 -6.297679 2.809198 -1.868436 25.786445 -9.089162 -76.310138 12.441615 -5.541683 -12.313007 2.629146 8.236955 -5.806374 -3.218370 8.290524 0.000004 -10.269460 -2.703851 0.691173 16.591122 20.294700 90.127652 23.194062 -0.727195 3.743675 4.396499 -12.184187 18.349477 0.000007 14.789471 0.000004 3.653027 0.924533 0.703380 0.000003 9.838800 0.000958 -29.255117 1.273579 1.734820 
